<svg width="43" height="41" viewBox="0 0 43 41" fill="none" xmlns="http://www.w3.org/2000/svg">
<path fill-rule="evenodd" clip-rule="evenodd" d="M11.556 3.68786C13.2308 3.55547 14.8196 2.91914 16.096 1.8695C17.5376 0.685018 19.3714 0.0320059 21.2688 0.0274826C23.1661 0.0229594 25.003 0.667221 26.4503 1.84482C27.7317 2.88836 29.3234 3.5171 30.9989 3.64151C32.891 3.78214 34.669 4.56519 36.014 5.85026C37.359 7.13534 38.1832 8.83841 38.3387 10.6542C38.4753 12.2614 39.1378 13.7873 40.2319 15.0122C41.4655 16.396 42.1453 18.1563 42.1497 19.9778C42.154 21.7992 41.4826 23.5628 40.2556 24.9524C39.1684 26.1827 38.5131 27.7109 38.3832 29.3194C38.2363 31.1359 37.4203 32.8429 36.0814 34.1344C34.7426 35.4258 32.9684 36.2173 31.0769 36.367C29.4021 36.4994 27.8133 37.1357 26.5369 38.1853C25.0953 39.3698 23.2615 40.0228 21.3641 40.0274C19.4668 40.0319 17.6299 39.3876 16.1826 38.21C14.9012 37.1665 13.3095 36.5377 11.634 36.4133C9.74187 36.2727 7.96393 35.4897 6.61891 34.2046C5.27388 32.9195 4.44974 31.2164 4.29422 29.4007C4.15664 27.7928 3.49411 26.2678 2.40098 25.0426C1.16743 23.6589 0.487568 21.8986 0.483226 20.0771C0.478884 18.2556 1.15035 16.4921 2.37729 15.1025C3.46456 13.8721 4.11981 12.3439 4.24972 10.7354C4.39658 8.91896 5.2126 7.21197 6.55148 5.9205C7.89036 4.62903 9.66455 3.83751 11.556 3.68786ZM30.9625 16.7719C31.4358 16.2992 31.6968 15.6671 31.6893 15.0116C31.6818 14.3561 31.4064 13.7297 30.9224 13.2673C30.4385 12.805 29.7847 12.5436 29.1019 12.5395C28.419 12.5355 27.7618 12.789 27.2718 13.2456L18.7158 21.4987L15.3408 18.2741C14.8486 17.8199 14.1901 17.5695 13.5073 17.5768C12.8245 17.5841 12.172 17.8486 11.6903 18.3133C11.2085 18.778 10.9361 19.4057 10.9318 20.0612C10.9274 20.7167 11.1914 21.3476 11.6669 21.818L16.8872 26.8056C17.3767 27.2731 18.0396 27.5349 18.7301 27.5332C19.4207 27.5316 20.0823 27.2667 20.5696 26.7968L30.9625 16.7719Z" fill="#FF8B00"/>
</svg>
